<svg viewBox="0 0 543.53 131" xmlns="http://www.w3.org/2000/svg"><style>.st1{fill:#fff}</style><g transform="translate(-75.873 -75.596)"><path class="st1" d="M242.1 77.3v73h20v-40.1l31.2 40.1H311v-73h-20v38.6l-30-38.6zm77.1 0v73h20v-40.1l31.2 40.1h17.7v-73h-20v38.6l-30-38.6zm132.1 28.2h-35.1v-11H455V77.2h-58.8v73.1h59.3v-17.2h-39.3v-11.6h35.1zm57.9 21.8c-5.9 5.7-14.7 7.3-22.1 3.8-5.6-3.2-9.2-9.7-9.2-17.4v-.2c0-10.6 7.2-19.3 17.4-19.3 7 0 11.8 3.3 16 8.6L526.5 91c-5.5-7.9-13.9-13.2-23.4-14.6-7.7-1.6-15.7-.8-22.9 2.3-14 5.7-23.2 19.1-23.2 35v.3c0 21.8 16.8 37.8 37.7 37.8 16.2 0 25.5-7 32.3-16.5l-15.2-10.8c-.9 1-1.7 1.9-2.6 2.8zM550.7 95v55.3h20.2V95h21.9V77.3h-64V95zm-327.2-9.4c-7.5-6.5-17.2-10.1-27.1-10-9.9 0-19.3 3.8-26.4 10.7l-41 41c-7.7 7.6-20.1 7.5-27.7-.2s-7.5-20.1.2-27.7c7.6-7.5 19.9-7.5 27.5 0l5.7 5.7 12.9-12.9-5.8-5.8c-7.1-7-16.6-10.9-26.5-10.8-10-.1-19.6 3.5-27.2 10-15.3 14-16.4 37.9-2.4 53.2.8.8 1.5 1.6 2.4 2.4 7.5 6.5 17.2 10.1 27.2 10 10 0 19.6-3.9 26.7-11l40.8-40.8c7.7-7.6 20.1-7.4 27.7.3s7.4 20.1-.3 27.7c-7.6 7.4-19.7 7.4-27.3 0l-5.8-5.8-12.9 12.9 5.8 5.8c7.1 7 16.6 10.9 26.5 10.8 10 .1 19.6-3.5 27.1-10 15.3-14 16.4-37.8 2.4-53.2-.8-.7-1.6-1.5-2.5-2.3z"/><path id="Scribble" d="M607.9 178.9l-13.2-4.5c-.2-2.1-.4-4.1-.6-6.2-1.3-.1-2.1-.2-3-.2-15-.5-30.1-1.1-45.1-1.5-11.7-.3-23.4-.4-35.1-.5-9 0-18.1.2-27.1.2s-18.1-.5-27.2-.4c-13.1.1-26.1.5-39.2.6-17.9.2-35.7.2-53.6.4-15.4.2-30.8.4-46.2.8-18.3.5-36.6 1-54.9 1.7-23.3 1-46.6 2.1-69.9 3.4-14.1.8-28.2 1.7-42.2 3.2-17.1 1.9-34.3 1.3-51.3-1.8l-1.8 2.3v4.9l-7 1.7v-.4l-14.6 1.9v8.6c81.7-12.3 163.4-11.7 244.8-15.8-2.5.8-5 1.2-7.6 1.2-9.7.9-19.4 1.9-29.1 2.7-6.4.5-12.9.4-19.3 1-11.4 1.1-22.8 2.6-34.2 3.9-6.6.8-13.3 1.5-19.9 2.4-12 1.5-24.1 2.9-36.1 4.8-8.7 1.4-17.4 3.3-26.1 5.2-1.6.7-3.1 1.7-4.4 2.9 2 4.8 2.2 5.2 6 5.2 5.8 0 11.6-.2 17.3-.7 10.3-.9 20.6-2.3 30.9-3.1 16.1-1.3 32.2-2.4 48.3-3.6 19.6-1.4 39.2-3 58.8-4.2 22.1-1.3 44.2-2.1 66.3-3.2 12.5-.6 25-1.2 37.5-1.7 4.1-.2 8.2-.4 12.3-.4 13.8-.1 27.6-.2 41.4-.4 1.6-.2 3.2-.6 4.8-1.2 3.7.4 6.9 1.1 10.2 1.1 6.5.1 12.8-1.1 19.4-.2 5.8.5 11.7.5 17.5.2 4.4.5 4.4.5 6.7-3L452 184c-2.2.1-4.3.1-6.5-.1-5.5.1-11 .5-16.6.6-10.2.2-20.3.1-30.5.3-8.2.2-16.3.9-24.4 1.2-12 .4-23.9.6-35.9 1.1-11.6.5-23.3 1.3-34.9 2-11.1.7-22.2 1.6-33.3 2.3-11.4.7-22.8 1.3-34.2 2.2-10 .7-20 1.7-30 2.6l-.1-.8 36-4.1c1.2-.1 2.3-.8 3.5-.9 12.7-1.2 25.5-2.4 38.2-3.4 17.5-1.4 35-2.7 52.5-4 10-.7 20-1.3 29.9-2.1 3.4-.3 6.9-.8 9.2-1.1 2.8.2 4.7.4 6.5.3 8.2-.5 16.4-1.4 24.6-1.6 8.1-.2 16.3.2 24.5.5 14.8.6 29.5 1.2 44.3 2 12.9.7 25.9 1.7 38.8 2.3 15.2.7 30.4 1.2 45.6 1.8 14.7.5 29.4 3 44.1.2 3.8-.8 5.1-2.3 4.6-6.4zm-14.7 2.8L486.5 177v-.9h60.9l45.9 4.6z" fill="#f70256"/><path class="st1" d="M615 77.8c1.4.8 2.4 1.9 3.2 3.2.8 1.4 1.2 2.9 1.2 4.6s-.4 3.2-1.2 4.6-1.9 2.5-3.3 3.3-2.9 1.2-4.6 1.2-3.2-.4-4.5-1.2c-1.4-.8-2.4-1.9-3.2-3.3s-1.2-2.9-1.2-4.5.4-3.2 1.2-4.5c.8-1.4 1.9-2.5 3.3-3.3s2.9-1.2 4.6-1.2c1.6-.1 3.1.3 4.5 1.1zm-.8 14.4c1.1-.7 2.1-1.6 2.7-2.8.7-1.2 1-2.5 1-3.9s-.3-2.7-1-3.8c-.6-1.1-1.5-2.1-2.7-2.7-1.1-.7-2.4-1-3.8-1s-2.7.3-3.9 1-2.1 1.6-2.7 2.7c-.7 1.2-1 2.4-1 3.8s.3 2.7 1 3.8c.7 1.2 1.6 2.1 2.7 2.7 1.1.7 2.4 1 3.8 1 1.5.2 2.7-.1 3.9-.8zm.3-6.2c-.3.5-.8.9-1.5 1.2l2.2 3.4H613l-2-3.1h-2.3v3.1h-2.2v-10h4.2c1.3 0 2.3.3 3.1.9s1.1 1.5 1.1 2.5c.1.9-.1 1.5-.4 2zm-3.8-.1c.7 0 1.3-.2 1.7-.5s.6-.8.6-1.3c0-.6-.2-1-.6-1.3s-.9-.5-1.7-.5h-1.9v3.5h1.9z"/></g></svg>