<svg xmlns="http://www.w3.org/2000/svg" width="212.326" height="59.146" viewBox="0 0 212.326 59.146"><g fill="#ef3340" fill-rule="evenodd" data-name="Link logo"><path d="M186.103 10.655v-.076Z" data-name="Path 1"/><path d="M62.674 45.951H0v2.154h64.214l-1.538-2.154Z" data-name="Path 2"/><path d="M48.678 35.571V11.962h-9.537v23.532Z" data-name="Path 3"/><path d="M48.679 37.648H35.528V11.962h-9.382v3.843H0v.616h26.147v7.536H0v.692h26.147v5.229H0v.846h26.147v3.614H0v.767h26.147v2.923H0v.769h26.147v2.154H0v.924h26.147v1.93H0v.846h48.684v-7Z" data-name="Path 4"/><path d="M64.675 48.722H0v2.153h66.29Z" data-name="Path 5"/><path d="M212.25 18.113v-.77h-21.917l.3.769Z" data-name="Path 6"/><path d="M212.25 21.421v-.769h-20.687l.231.769Z" data-name="Path 7"/><path d="M0 51.567v2.537h68.75l-2-2.537Z" data-name="Path 8"/><path d="M154.804 20.65h36.76l-.922-2.537h-40.373a13.3 13.3 0 0 1 4.536 2.537Z" data-name="Path 10"/><path d="M212.25 29.497v-.614h-19.3v.616h-16.531a14 14 0 0 1-.077 1.846h-17.617a15 15 0 0 0 .077-1.846h17.611v-.692h16.531c-.077-1.385-.152-2.692-.3-4.075h19.61v-.849h-19.769c-.23-.845-.455-1.615-.692-2.46h-16.766v.231h-19.762a14 14 0 0 0-1.23 1.693h-17.61a11.86 11.86 0 0 1 10-5.763h27.376c0-.077-.077-.152-.077-.231h16.611l-.769-1.539h22.687v-1.307h-23.379c-.3-.455-.538-.845-.845-1.306h24.225v-1.7h-25.459a8 8 0 0 0-.693-.846h-16.683a15.4 15.4 0 0 0-1.845-2h16.683a14.5 14.5 0 0 1 1.846 1.923h26.224l-.076-2h-27.917c-.3-.3-.616-.538-.922-.846h28.839V5.195h-31.992a25.4 25.4 0 0 1 3.153 2.537h-16.764a27 27 0 0 0-3.308-2.537h16.919a9 9 0 0 0-1.077-.769h-16.917a28.88 28.88 0 0 0-29.838-.538H0v.538h39.143v5.915h9.535V4.426h82.67a26.9 26.9 0 0 0-10.536 11.375h-14.227c1.076-1.307 2-2.537 2.921-3.845H98.738l-9.151 12v-12H79.82v32.683h9.92V33.105l8.46 11.534h22.994a7.2 7.2 0 0 0 .769 1.307l17.3.077a21 21 0 0 0 1.538 2.076h-17.3a22 22 0 0 1-1.538-2.154H76.056V11.956h-9.529v12.382L52.454 5.189v39.45h9.371v-9.688L75.975 54.1l53.755.077a26.5 26.5 0 0 1-3.155-2.692h-50.52v-.616h49.833l.691.616h17.3a28 28 0 0 0 3.308 2.692h-17.38a10 10 0 0 1 1.154.769h17.381a29.19 29.19 0 0 0 29.915.152h33.991v-1h-32.532a27.36 27.36 0 0 0 9.535-10.536h23v-.769h-22.61a24.1 24.1 0 0 0 2.692-7.228h-35.068a14.2 14.2 0 0 0 1.23-3.153h17.611a6.5 6.5 0 0 1-.692 2.383h17.227l-.152.769h19.765v-1.23h-19.7a33.4 33.4 0 0 0 .385-4.846Zm-23.379-15c.232.455.455.846.692 1.307h-16.61l-.692-1.307Zm-2.076-3a13.6 13.6 0 0 1 1.23 1.693h-16.61l-1.3-1.693ZM99.126 30.722h18.148v-.769H98.511l-1.23-1.691 2.69-3.614h17.764l.077-.692h-17.3l5.612-7.538h14.3a29.2 29.2 0 0 0-2.614 7.538h35.922a10.3 10.3 0 0 0-1.23 2.845h-17.537a7.2 7.2 0 0 1 .769-2.154h-17.997a20.4 20.4 0 0 0-.455 5.308h17.3a11 11 0 0 1 .231-2.307h17.534a10.2 10.2 0 0 0-.231 3.076h-34.832a19 19 0 0 0 .3 3.614h-15.77l-2.691-3.614Zm53.37 2.307h-17.841l-.076-1.385h17.611a9 9 0 0 0 .3 1.385ZM76.058 48.794v-.611h47.449l.455.616Zm49.833 2.076c-.692-.692-1.307-1.385-1.923-2.076h17.379c.616.692 1.154 1.383 1.846 2.076Zm48.684-14.381a11.63 11.63 0 0 1-9.843 5h-27.848l.078.3h-17.226c.3.692.616 1.306.922 1.922h17.3c.151.3.3.616.538 1h-17.3l-.539-1h-11.842l-1.462-1.922h12.382a3.7 3.7 0 0 1-.3-.846h39.6a13.4 13.4 0 0 1-3.153-2.154h-37.3c.232.769.538 1.385.846 2.154h-12.69l-1.615-2.154h13.457a3.5 3.5 0 0 1-.152-.769h-13.834l-2.23-2.923h15.38a2.4 2.4 0 0 1-.077-.769h35.3a6 6 0 0 0 .538 1.23h-18.463l-.077-.455h-17.228a20 20 0 0 0 .692 2.923h17.148l-.151-.385h19.455l.455.616 1.383-1.768Zm-17.381-12.843h18.529l.077.23h16.605a3.3 3.3 0 0 1 .152.846H157.72a7 7 0 0 0-.539-1.077Zm1.23 3.076h17.905a6 6 0 0 0 .077 1.154l-17.764-.077c-.076-.3-.152-.692-.23-1.077Z" data-name="Path 11"/></g></svg>